# xmcd
#
# Track frame offsets:
#	150
#	20297
#	43607
#	62122
#	85260
#	104442
#	116512
#	136737
#	151292
#	173590
#	192822
#	209585
#
# Disc length: 3050 seconds
#
# Revision: 1
# Processed by: cddbd v1.5.2PL0 Copyright (c) Steve Scherf et al.
# Submitted via: audiograbber 1.83.01
#
DISCID=990be80c
DTITLE=Roberto Carlos - Testardo io
DYEAR=1975
DGENRE=Pop
TTITLE0=Testardo io
TTITLE1=O diva
TTITLE2=Traumas
TTITLE3=Detalhes
TTITLE4=Por amor
TTITLE5=I love you
TTITLE6=Io ti propongo
TTITLE7=A namorada
TTITLE8=A cigana
TTITLE9=Amore mi sbagliai
TTITLE10=Solo con te
TTITLE11=Amato amore
EXTD=
EXTT0=
EXTT1=
EXTT2=
EXTT3=
EXTT4=
EXTT5=
EXTT6=
EXTT7=
EXTT8=
EXTT9=
EXTT10=
EXTT11=
PLAYORDER=
